<svg xmlns="http://www.w3.org/2000/svg" width="66.399" height="72.51" viewBox="0 0 66.399 72.51"><defs><style>.a{fill:#9d9d9d;}.b{fill:#ef505a;}</style></defs><g transform="translate(-0.057)"><g transform="translate(0.057)"><path class="a" d="M38.838,70.093H49.714a1.209,1.209,0,0,0,.854-.354l14.5-14.5a1.209,1.209,0,0,0,.354-.854V6.042A6.05,6.05,0,0,0,59.382,0H11.042A6.05,6.05,0,0,0,5,6.042V26.587a1.208,1.208,0,1,0,2.417,0V6.042a3.626,3.626,0,0,1,3.625-3.625h48.34a3.626,3.626,0,0,1,3.625,3.625V53.174H54.548a6.05,6.05,0,0,0-6.042,6.042v8.459H38.838a1.208,1.208,0,1,0,0,2.417Zm15.71-14.5H61.3L50.923,65.967V59.216A3.626,3.626,0,0,1,54.548,55.591Z" transform="translate(0.974)"/><path class="a" d="M12.208,8.417h2.417a1.208,1.208,0,0,0,0-2.417H12.208a1.208,1.208,0,1,0,0,2.417Z" transform="translate(2.225 1.251)"/><path class="a" d="M54.463,6H18.208a1.208,1.208,0,0,0,0,2.417H54.463a1.208,1.208,0,0,0,0-2.417Z" transform="translate(3.476 1.251)"/><path class="a" d="M12.208,14.417h2.417a1.208,1.208,0,0,0,0-2.417H12.208a1.208,1.208,0,1,0,0,2.417Z" transform="translate(2.225 2.502)"/><path class="a" d="M18.208,14.417H46A1.208,1.208,0,1,0,46,12h-27.8a1.208,1.208,0,0,0,0,2.417Z" transform="translate(3.476 2.502)"/><path class="a" d="M12.208,20.417h2.417a1.208,1.208,0,0,0,0-2.417H12.208a1.208,1.208,0,1,0,0,2.417Z" transform="translate(2.225 3.753)"/><path class="a" d="M18.208,20.417H37.544a1.208,1.208,0,0,0,0-2.417H18.208a1.208,1.208,0,0,0,0,2.417Z" transform="translate(3.476 3.753)"/><path class="a" d="M51.417,21.208a1.208,1.208,0,1,0-2.417,0V38.127a1.208,1.208,0,1,0,2.417,0Z" transform="translate(10.148 4.17)"/><path class="a" d="M50.208,38A1.208,1.208,0,0,0,49,39.208v2.417a1.208,1.208,0,1,0,2.417,0V39.208A1.209,1.209,0,0,0,50.208,38Z" transform="translate(10.148 7.923)"/><path class="b" d="M23.219,67.22a1.209,1.209,0,0,0,.738,0c17.1-5.483,23.162-18,23.162-27.061,0-8.45-5.438-15.068-12.37-15.068a16.345,16.345,0,0,0-11.162,4.435,16.347,16.347,0,0,0-11.162-4.435C5.49,25.092.057,31.71.057,40.16.057,49.216,6.122,61.739,23.219,67.22ZM15.555,45.786c3.887.029,6.331-.818,8.967,2.039L7.869,28.414,2.474,40.16l.835,9.168,4.56,7.136L23.957,64.8l15.487-8.334-.766-28.05L23.887,37.186c-1.43,1.235-.7,14.238,3.19,14.208,5.581,0-4.69-11.578-4.69-4.487,0,8.179,15.575-2.723,0,2.42-15.57-5.143-14.667-.656-14.667-8.835,0-7.094,2.255,5.293,7.835,5.293Z" transform="translate(-0.057 5.232)"/></g></g></svg>